<?xml version="1.0" encoding="utf-8"?>
<!-- Generator: Adobe Illustrator 27.7.0, SVG Export Plug-In . SVG Version: 6.00 Build 0)  -->
<svg version="1.1" id="Layer_2" xmlns="http://www.w3.org/2000/svg" xmlns:xlink="http://www.w3.org/1999/xlink" x="0px" y="0px"
	 viewBox="0 0 240 64" style="enable-background:new 0 0 240 64;" xml:space="preserve">
<style type="text/css">
	.st0{fill-rule:evenodd;clip-rule:evenodd;fill:#D83135;}
	.st1{fill-rule:evenodd;clip-rule:evenodd;fill:#2B3164;}
</style>
<g>
	<g>
		<path class="st0" d="M141.72,52v1.03V52L141.72,52z M176.6,47.03c-1.06,0.06-2.08,0.13-3.14,0.19c-0.87,0.07-1.7,0.13-2.57,0.19
			c-3.43,0.22-6.6,0.54-9.56,0.9c-3.59,0.42-6.86,0.9-9.84,1.44c-1.76,0.32-3.4,0.67-4.94,1.03c-1.73,0.38-3.33,0.77-4.84,1.22
			c-1.22,0.32-2.34,0.67-3.43,1.03h3.43h4.84h0.67c1.35-0.29,2.76-0.58,4.26-0.86c2.98-0.55,6.25-1.03,9.84-1.44
			c3.01-0.39,6.25-0.67,9.75-0.93c0.8-0.06,1.57-0.13,2.37-0.16c0.67-0.06,1.35-0.1,1.99-0.16c0.42-0.35,0.8-0.8,1.15-1.28
			c0.26-0.38,0.54-0.77,0.77-1.22L176.6,47.03z"/>
	</g>
	<path class="st0" d="M146.56,48.15c1.54-0.35,3.17-0.67,4.94-0.99c2.98-0.55,6.25-1.03,9.84-1.47c2.95-0.35,6.13-0.64,9.56-0.9
		c0.87-0.06,1.7-0.13,2.57-0.16c1.06-0.1,2.08-0.16,3.14-0.22c0.67-0.03,1.35-0.07,2.02-0.13c-0.35,0.93-0.71,1.73-1.12,2.47
		c-0.29,0.03-0.61,0.03-0.9,0.06c-1.06,0.06-2.08,0.13-3.14,0.19c-0.8,0.06-1.57,0.13-2.37,0.16c-3.49,0.26-6.73,0.58-9.75,0.93
		c-3.59,0.45-6.86,0.93-9.84,1.47c-4.42,0.82-9.68,1.93-13.79,3.46l-6.32-0.03c1.92-0.83,4.07-1.67,6.44-2.44
		c1.22-0.42,2.5-0.8,3.88-1.19C143.23,48.95,144.83,48.54,146.56,48.15z"/>
	<g>
		<path class="st0" d="M137.84,45.33v2.41V45.33L137.84,45.33z M151.5,41.93v2.44V41.93L151.5,41.93z M173.46,39.4l-0.35,0.03
			c-2.18,1.09-6.09,1.67-11.77,1.8c-0.67,0-1.35,0.03-2.05,0.03c-1.12,0-2.28-0.03-3.37-0.06c-1.54,0.26-3.01,0.48-4.42,0.74
			c-1.76,0.32-3.4,0.67-4.94,1.03c-1.73,0.39-3.33,0.8-4.84,1.22c-1.38,0.38-2.66,0.77-3.88,1.15c-4.78,1.57-8.5,3.3-11.64,5
			c-0.77,0.42-1.51,0.83-2.21,1.25c-0.8,0.48-1.57,0.96-2.31,1.41h2.31h1.73c0.16-0.1,0.32-0.19,0.48-0.26
			c3.14-1.7,6.86-3.43,11.64-5c1.22-0.38,2.5-0.77,3.88-1.16c1.51-0.42,3.11-0.83,4.84-1.22c1.54-0.35,3.21-0.71,4.94-0.99
			c2.98-0.58,6.25-1.06,9.84-1.48c3.01-0.38,6.25-0.67,9.75-0.93c0.8-0.06,1.57-0.13,2.37-0.16V39.4L173.46,39.4z"/>
	</g>
	<g>
		<path class="st0" d="M151.5,52.38v0.64V52.38L151.5,52.38z M173.46,49.82c-0.14,0.01-0.27,0.02-0.4,0.03
			c-0.72,0.05-1.43,0.11-2.16,0.16c-3.43,0.26-6.6,0.54-9.56,0.9c-3.59,0.42-6.86,0.93-9.84,1.47c-1.15,0.19-2.28,0.42-3.37,0.64
			h3.37l4.55,0.03c1.89,0,3.66-0.06,5.29-0.13c5.2-0.26,9.07-0.87,11.7-1.89c0.16-0.06,0.29-0.1,0.42-0.16
			c0.61-0.29,1.22-0.67,1.76-1.15C174.62,49.76,174.04,49.79,173.46,49.82z"/>
	</g>
	<g>
		<path class="st0" d="M146.56,45.55v2.4V45.55L146.56,45.55z M151.5,46.97c2.98-0.55,6.25-1.06,9.84-1.48
			c3.01-0.35,6.25-0.67,9.75-0.93c0.8-0.06,1.57-0.1,2.37-0.16c1.06-0.07,2.08-0.13,3.14-0.19c0.71-0.07,1.41-0.1,2.08-0.13
			c0.03-0.1,0.06-0.19,0.1-0.29c0.26-0.71,0.48-1.44,0.67-2.15c-0.96,0.03-1.89,0.1-2.85,0.16c-1.06,0.06-2.08,0.13-3.14,0.19
			c-0.87,0.06-1.7,0.13-2.57,0.19c-3.43,0.26-6.6,0.55-9.56,0.9c-0.56,0.07-1.11,0.13-1.66,0.2c-2.95,0.38-5.67,0.81-8.18,1.27
			c-1.76,0.32-3.4,0.64-4.94,0.99c-1.73,0.38-3.33,0.8-4.84,1.22c-1.38,0.38-2.66,0.77-3.88,1.19c-4.78,1.57-8.5,3.27-11.64,4.97
			v0.06h4.75c2.05-0.9,4.33-1.79,6.89-2.63c1.22-0.42,2.5-0.8,3.88-1.19c1.51-0.42,3.11-0.83,4.84-1.22
			C148.1,47.61,149.77,47.29,151.5,46.97z"/>
	</g>
	<path class="st1" d="M174.88,19.04c1.03,22.74-23.16,24.39-15.06,33.74c2.16,2.49,6.55,2.35,7.78,0.32c2.8-4.1,5.59-8.2,8.39-12.3
		c1.8-2.85,2.26-3.18,2.83-2.41c3.29,4.43-3.55,21.45,6.71,20.77c4.24-1.02,6.34-3.49,4.61-8.57c-1.86-7.22-3.34-15.19-3.47-22.42
		c-0.18-10.17,0.56-18.32-6.12-18.12C174.65,10.53,174.82,14.93,174.88,19.04z"/>
	<path class="st0" d="M100.32,46.87c-0.16,0.13-0.29,0.26-0.45,0.35c0.06,0.03,0.13,0.03,0.19,0.03c0.1,0,0.16,0,0.26,0V46.87
		L100.32,46.87z"/>
	<path class="st0" d="M105.36,10.77c-3.46,0.44-7.42,0.52-10.68-0.87c-0.42,0.48-0.83,0.99-1.25,1.57
		c3.94,2.38,9.16,2.12,13.55,1.27C106.37,11.97,105.9,11.41,105.36,10.77z"/>
	<path class="st0" d="M109.21,22.82c0.8-0.22,1.57-0.51,2.34-0.8c-0.19-0.74-0.42-1.44-0.67-2.15c-0.54,0.19-1.09,0.38-1.67,0.54
		c-2.5,0.71-5.35,1.09-8.88,0.99c-0.16,0-0.35,0-0.51,0h-0.03c0.16,0.13,0.35,0.32,0.54,0.48c0.48,0.48,0.99,1.06,1.54,1.73
		c0.06,0.06,0.13,0.13,0.16,0.19C104.81,23.75,107.12,23.4,109.21,22.82z"/>
	<path class="st0" d="M146.56,14.15c-0.1-0.06-0.2-0.11-0.3-0.17c-0.53-0.31-1.04-0.65-1.53-1.03c-1.06,0.24-2.05,0.51-3.01,0.75
		c-1.38,0.36-2.66,0.72-3.88,1.11c-1.73,0.51-3.3,1.08-4.78,1.62c0.22,0.75,0.45,1.41,0.64,2.01c1.28-0.45,2.66-0.93,4.14-1.38
		c1.22-0.39,2.5-0.75,3.88-1.11c1.41-0.36,2.88-0.72,4.46-1.05c0.13-0.21,0.26-0.39,0.39-0.6V14.15L146.56,14.15z"/>
	<polygon class="st0" points="146.56,14.3 146.62,14.18 146.56,14.15 146.56,14.3 	"/>
	<polygon class="st0" points="151.5,34.14 151.5,34.11 151.5,34.14 	"/>
	<g>
		<path class="st0" d="M161.34,30.71c1.41,0.13,3.21,0.51,5.42,1.19c1.38-0.13,2.85-0.26,4.33-0.35c0.8-0.06,1.57-0.13,2.37-0.19
			c1.06-0.07,2.08-0.13,3.14-0.19c1.03-0.07,2.02-0.13,3.05-0.19c-0.22-0.8-0.48-1.57-0.8-2.34c-0.77,0.07-1.51,0.1-2.24,0.13
			c-1.06,0.07-2.08,0.16-3.14,0.23c-0.87,0.06-1.7,0.1-2.57,0.16c-3.43,0.26-6.6,0.58-9.56,0.9c-3.59,0.45-6.86,0.93-9.84,1.48
			c-1.76,0.32-3.4,0.67-4.94,1.02c-1.06,0.23-2.05,0.48-3.05,0.71c-0.64,0.48-1.25,0.93-1.8,1.28c-1.35,0.93-2.31,1.51-2.92,1.76
			c0.38-0.67,0.77-1.35,1.12-2.02c-0.74,0.19-1.41,0.42-2.08,0.64c-1.22,0.42-2.37,0.83-3.46,1.25c-0.1,0.39-0.22,0.74-0.32,1.06
			c-0.45,1.28-2.6,2.05-7.28,2.41c-0.19,0.1-0.39,0.19-0.58,0.29c-0.77,0.42-1.51,0.83-2.21,1.25c-0.9,0.54-1.73,1.06-2.57,1.57
			c-0.54,0.35-1.09,0.67-1.6,1.03c-3.37,2.13-6.74,4.24-10.61,5.32c-3.69,1.04-8.68,1.53-12.5,0.58c-0.74,0.54-1.47,1.06-2.15,1.51
			c3.15,1.78,7.93,1.54,11.64,0.99l1.06-2.15c0.06,0.29,0.64,0.96,1.64,1.57c3.96-1.31,7.14-3.08,10.65-5.29
			c0.61-0.39,1.25-0.8,1.89-1.19c0.83-0.51,1.67-1.03,2.57-1.57c0.71-0.42,1.44-0.83,2.21-1.25c0.49-0.26,1-0.52,1.52-0.79
			c2.81-1.42,6.09-2.86,10.12-4.18c1.22-0.38,2.5-0.77,3.88-1.15c1.51-0.42,3.11-0.83,4.84-1.22c1.54-0.35,3.21-0.71,4.94-1.03
			c0.16-0.03,0.29-0.03,0.48-0.06c3.59-2.15,6.38-3.21,8.34-3.21C160.64,30.64,160.96,30.68,161.34,30.71L161.34,30.71z
			 M126.2,39.91v2.37V39.91L126.2,39.91z M123.99,41.16v2.37V41.16L123.99,41.16z M146.56,32.54v2.41V32.54L146.56,32.54z
			 M173.46,28.98v2.37V28.98z"/>
	</g>
	<path class="st0" d="M137.84,22.11c1.22-0.39,2.5-0.75,3.88-1.11c0.35-0.09,0.71-0.18,1.06-0.27c0.1,0.75,0.16,1.47,0.19,2.22
		c-0.45,0.09-0.83,0.21-1.25,0.3c-1.38,0.36-2.66,0.72-3.88,1.11c-0.99,0.3-1.96,0.63-2.88,0.93c-0.06-0.81-0.13-1.53-0.19-2.19
		C135.72,22.77,136.75,22.44,137.84,22.11z"/>
	<g>
		<path class="st0" d="M137.78,4.3l-0.54,0.69c0.19-0.06,0.35-0.12,0.54-0.18V4.3L137.78,4.3L137.78,4.3z M137.78,4.81V4.3
			l1.16-1.41c0.13,0.51,0.22,0.99,0.38,1.47C138.78,4.51,138.29,4.66,137.78,4.81z"/>
	</g>
	<path class="st0" d="M137.84,5.04c-0.26,0.09-0.51,0.18-0.74,0.24l-2.5,3.09c1.03-0.36,2.12-0.72,3.24-1.05
		c0.74-0.24,1.51-0.45,2.28-0.69c-0.26-0.63-0.51-1.32-0.71-2.04C138.86,4.74,138.35,4.89,137.84,5.04z"/>
	<g>
		<path class="st0" d="M137.84,7.49v2.25c-2.24,0.69-4.26,1.41-6.09,2.13l2.63-3.24C135.47,8.24,136.62,7.86,137.84,7.49
			L137.84,7.49L137.84,7.49z M137.84,9.74c1.06-0.33,2.15-0.63,3.3-0.96c-0.35-0.63-0.67-1.29-0.96-1.98
			c-0.8,0.21-1.57,0.45-2.34,0.69V9.74z"/>
	</g>
	<g>
		<path class="st0" d="M137.84,32.31v2.4c-1.22,0.38-2.34,0.8-3.43,1.22c0.19-0.77,0.32-1.6,0.42-2.56
			C135.79,33.02,136.78,32.66,137.84,32.31L137.84,32.31L137.84,32.31z M137.84,34.72c0.71-0.22,1.44-0.45,2.18-0.67
			c0.48-0.93,0.9-1.86,1.25-2.79c-1.19,0.35-2.34,0.71-3.43,1.06V34.72z"/>
	</g>
	<path class="st0" d="M141.72,18.4v-2.28c0.21-0.05,0.42-0.1,0.64-0.16c1.16-0.29,2.39-0.59,3.66-0.86
		c-0.58,0.81-1.25,1.71-2.05,2.73c-0.73,0.17-1.44,0.34-2.14,0.54L141.72,18.4L141.72,18.4L141.72,18.4z M137.84,17.23
		c-1.44,0.45-2.82,0.9-4.1,1.38c0.22,0.69,0.42,1.38,0.58,2.04c1.12-0.39,2.28-0.78,3.53-1.17c1.22-0.36,2.5-0.75,3.88-1.08v-0.07
		v-2.21C140.34,16.48,139.06,16.84,137.84,17.23z"/>
	<g>
		<path class="st0" d="M137.84,12.35c1.22-0.36,2.5-0.72,3.88-1.08l0,0v0.03v2.22c-1.38,0.36-2.66,0.72-3.88,1.08
			c-1.73,0.54-3.33,1.11-4.84,1.68c-0.19-0.63-0.38-1.29-0.61-2.01C134.05,13.61,135.85,12.98,137.84,12.35L137.84,12.35z
			 M141.72,13.52c0.9-0.24,1.86-0.48,2.82-0.69c-0.67-0.54-1.28-1.14-1.86-1.83c-0.32,0.09-0.64,0.18-0.96,0.27V13.52z"/>
	</g>
	<path class="st0" d="M141.72,9.71c-0.16-0.24-0.32-0.51-0.48-0.75c-1.19,0.3-2.31,0.63-3.4,0.96c-2.24,0.69-4.26,1.41-6.09,2.16
		c0.23,0.72,0.42,1.38,0.58,2.01c1.7-0.66,3.53-1.29,5.51-1.92c1.22-0.36,2.5-0.72,3.88-1.08c0.29-0.09,0.58-0.15,0.87-0.24
		C142.26,10.49,141.98,10.1,141.72,9.71z"/>
	<path class="st0" d="M141.72,20.83c-1.38,0.36-2.66,0.72-3.88,1.08c-1.09,0.36-2.12,0.69-3.11,1.05c-0.1-0.78-0.22-1.47-0.39-2.13
		c1.12-0.39,2.28-0.78,3.5-1.17c1.22-0.36,2.5-0.75,3.88-1.08c0.67-0.18,1.38-0.36,2.08-0.54c-0.38,0.51-0.8,1.02-1.25,1.53
		c0.06,0.33,0.13,0.66,0.19,0.99C142.39,20.65,142.04,20.74,141.72,20.83z"/>
	<path class="st0" d="M142.81,25.42c-2.62,0.66-5.28,1.48-7.79,2.47c0-0.9-0.03-1.67-0.06-2.41c2.65-0.91,5.28-1.67,8.02-2.3
		C142.97,23.98,142.9,24.62,142.81,25.42z"/>
	<path class="st0" d="M137.84,27.09c1.22-0.39,2.5-0.8,3.88-1.16c0.35-0.13,0.71-0.22,1.06-0.32c-0.1,0.87-0.29,1.73-0.48,2.57
		c-0.19,0.06-0.38,0.1-0.58,0.16c-1.38,0.38-2.66,0.77-3.88,1.15c-0.99,0.32-1.92,0.67-2.82,0.99c0-0.51,0-1.03,0-1.57
		c0-0.29,0-0.58,0-0.83C135.91,27.73,136.88,27.41,137.84,27.09z"/>
	<path class="st0" d="M141.72,28.53c-1.38,0.38-2.66,0.77-3.88,1.15c-0.99,0.35-1.92,0.67-2.82,0.99c-0.03,0.9-0.1,1.73-0.16,2.47
		c0.93-0.35,1.92-0.71,2.98-1.03c1.12-0.39,2.28-0.74,3.53-1.09c0.13-0.32,0.23-0.64,0.35-0.96c0.19-0.55,0.35-1.12,0.51-1.7
		C142.07,28.43,141.88,28.46,141.72,28.53z"/>
	<g>
		<path class="st0" d="M121.42,45.33v2.37V45.33L121.42,45.33z M141.72,36.35v2.41V36.35L141.72,36.35z M146.56,37.03
			c1.38-0.8,3.01-1.76,4.94-2.89v-0.03l0,0c-1.76,0.32-3.4,0.67-4.94,1.03c-1.73,0.38-3.33,0.8-4.84,1.22
			c-1.38,0.38-2.66,0.77-3.88,1.15c-4.78,1.6-8.5,3.3-11.64,5c-0.77,0.42-1.51,0.83-2.21,1.25c-0.9,0.55-1.73,1.06-2.57,1.57
			c-0.54,0.35-1.09,0.71-1.6,1.03c-1.92,1.22-3.72,2.34-5.55,3.3c-1.6,0.83-3.24,1.51-5.07,2.05v0.06c0.87,0.48,1.99,0.93,3.34,1.12
			c0.58-0.29,1.15-0.54,1.73-0.87c1.73-0.9,3.43-1.99,5.26-3.14c0.61-0.38,1.25-0.77,1.89-1.19c0.83-0.51,1.67-1.03,2.57-1.57
			c0.71-0.38,1.44-0.8,2.21-1.22c3.14-1.7,6.86-3.43,11.64-4.97c1.22-0.42,2.5-0.8,3.88-1.19c1.09-0.29,2.21-0.61,3.4-0.87
			C145.57,37.64,146.05,37.35,146.56,37.03z"/>
	</g>
	<g>
		<path class="st0" d="M123.99,12.24V9.87l0,0V12.24L123.99,12.24z M121.42,13.81c0.83-0.51,1.67-1.02,2.57-1.57
			c0.55-0.29,1.09-0.61,1.67-0.93c-0.42-0.54-0.8-1.12-1.15-1.73c-0.16,0.1-0.32,0.19-0.51,0.29c-0.9,0.55-1.73,1.06-2.57,1.57
			c-0.54,0.35-1.09,0.71-1.6,1.03c-1.47,0.93-2.85,1.79-4.26,2.6c0.23,0.74,0.42,1.41,0.58,2.05c1.12-0.67,2.24-1.38,3.4-2.11
			C120.14,14.61,120.78,14.23,121.42,13.81z"/>
	</g>
	<path class="st0" d="M121.42,11.21c0.83-0.51,1.67-1.03,2.57-1.57c0.16-0.07,0.29-0.16,0.42-0.23c-0.13-0.29-0.29-0.54-0.42-0.83
		c-0.16-0.32-0.32-0.67-0.45-1.03c-0.74,0.42-1.44,0.86-2.12,1.28c-0.54,0.35-1.09,0.67-1.6,1.03c-1.7,1.06-3.27,2.05-4.87,2.92
		c0.19,0.77,0.38,1.44,0.55,2.08c1.35-0.77,2.63-1.6,4.04-2.47C120.14,12.02,120.78,11.6,121.42,11.21z"/>
	<path class="st0" d="M121.42,5.99c0.42-0.26,0.87-0.51,1.28-0.8c-0.19-0.64-0.35-1.35-0.51-2.05l-0.29,0.19l-0.48,0.61l-2.95,3.91
		c0.35-0.22,0.7-0.45,1.06-0.67C120.14,6.79,120.78,6.4,121.42,5.99z"/>
	<g>
		<path class="st0" d="M121.42,6.24v2.34c-0.64,0.42-1.28,0.83-1.89,1.22c-1.6,0.99-3.11,1.95-4.65,2.79l3.24-4.26
			c0.55-0.35,1.12-0.71,1.7-1.09C120.33,6.92,120.88,6.56,121.42,6.24L121.42,6.24L121.42,6.24z M121.42,8.58
			c0.64-0.38,1.32-0.8,2.02-1.22c-0.22-0.64-0.45-1.28-0.67-1.96c-0.45,0.26-0.9,0.55-1.35,0.83V8.58z"/>
	</g>
	<path class="st0" d="M126.2,39.65c-0.67,0.03-1.41,0.06-2.21,0.1c-0.58,0-1.19,0-1.83,0.03l-0.18,0l-0.55,0.35
		c-0.54,0.32-1.09,0.67-1.6,0.99c-1.92,1.22-3.72,2.37-5.55,3.3c-1.6,0.83-3.24,1.54-5.07,2.05c-2.5,0.71-5.35,1.09-8.88,0.99
		c-0.16,0-0.35,0-0.51,0c-0.07,0-0.13,0-0.23,0c-0.13,0.11-0.26,0.21-0.39,0.31c-0.71,0.56-1.44,1.1-2.17,1.64
		c0.93,0.22,1.96,0.38,3.05,0.42c0.1,0,0.16,0,0.26,0c3.56,0.13,6.38-0.26,8.88-0.96c1.83-0.51,3.46-1.22,5.07-2.05
		c1.73-0.93,3.43-1.99,5.26-3.14c0.61-0.42,1.25-0.8,1.89-1.22c0.83-0.51,1.67-1.03,2.57-1.54c0.71-0.42,1.44-0.83,2.21-1.25V39.65
		L126.2,39.65z"/>
	<polygon class="st0" points="126.2,52.93 126.1,52.99 126.2,52.99 126.2,52.93 	"/>
	<polygon class="st0" points="126.2,39.69 126.2,39.65 126.3,39.62 126.2,39.69 	"/>
	<g>
		<path class="st0" d="M151.5,41.74v-0.71l0,0V41.74L151.5,41.74z M121.42,52.93c0.83-0.51,1.67-1.06,2.57-1.57
			c0.71-0.42,1.44-0.83,2.21-1.25c3.14-1.7,6.86-3.4,11.64-4.97c1.22-0.38,2.5-0.8,3.88-1.15c1.51-0.42,3.11-0.83,4.84-1.22
			c1.54-0.35,3.17-0.71,4.94-1.03c1.06-0.19,2.18-0.39,3.33-0.58c-1.15-0.03-2.24-0.06-3.33-0.13c-0.27-0.01-0.53-0.03-0.79-0.05
			c-1.42-0.09-2.82-0.2-4.14-0.34c-0.29-0.03-0.58-0.07-0.87-0.1c-1.41,0.32-2.73,0.64-3.98,0.99c-1.38,0.38-2.66,0.77-3.88,1.19
			c-4.78,1.57-8.5,3.3-11.64,5c-0.77,0.42-1.51,0.83-2.21,1.25c-0.9,0.51-1.73,1.06-2.57,1.57c-0.54,0.35-1.09,0.67-1.6,1.03
			c-0.77,0.48-1.54,0.93-2.28,1.41h3.75L121.42,52.93z"/>
	</g>
	<path class="st0" d="M109.21,43.89c1.83-0.51,3.46-1.22,5.07-2.05c1.83-0.96,3.62-2.09,5.55-3.3c0.51-0.32,1.06-0.67,1.6-1.03
		c0.83-0.51,1.67-1.03,2.57-1.57c0.29-0.16,0.58-0.32,0.9-0.51c-0.04,0.11-0.08,0.22-0.12,0.33c-0.23,0.59-0.5,1.18-0.77,1.69
		c-0.13,0.29-0.26,0.55-0.42,0.77l-0.67,0.77c-0.51,0.29-0.99,0.61-1.48,0.9c-0.64,0.42-1.28,0.8-1.89,1.19
		c-1.83,1.15-3.53,2.25-5.26,3.14c-1.6,0.86-3.24,1.54-5.07,2.08c-2.5,0.71-5.32,1.06-8.88,0.96v-0.39c0.8-0.64,1.54-1.31,2.21-1.99
		C105.07,44.78,107.25,44.43,109.21,43.89z"/>
	<path class="st0" d="M121.42,37.28c0.83-0.51,1.67-1.03,2.57-1.57c0.32-0.19,0.67-0.38,0.99-0.58c0.32-0.9,0.61-1.86,0.83-2.82
		c-0.64,0.35-1.25,0.67-1.83,1.03c-0.9,0.55-1.73,1.06-2.57,1.57c-0.54,0.35-1.09,0.67-1.6,1.03c-0.54,0.35-1.09,0.67-1.63,0.99
		c-0.06,0.61-0.16,1.15-0.35,1.7c-0.19,0.61-0.45,1.06-0.8,1.41c0.83-0.51,1.63-1.03,2.5-1.57
		C120.14,38.08,120.78,37.67,121.42,37.28z"/>
	<path class="st0" d="M121.42,32.31c0.83-0.51,1.67-1.06,2.57-1.57c0.71-0.42,1.44-0.83,2.21-1.25l0.1-0.06
		c-0.03,0.22-0.06,0.45-0.1,0.67c-0.1,0.67-0.19,1.31-0.35,1.95c-0.64,0.35-1.25,0.71-1.86,1.06c-0.9,0.51-1.73,1.06-2.57,1.54
		c-0.64,0.42-1.28,0.83-1.89,1.22c-0.45,0.26-0.87,0.55-1.32,0.8c0.1-0.77,0.1-1.57,0.1-2.41c0.48-0.32,0.99-0.64,1.51-0.96
		C120.33,32.98,120.88,32.63,121.42,32.31z"/>
	<path class="st0" d="M121.42,32.06c0.83-0.51,1.67-1.03,2.57-1.54c0.11-0.06,0.22-0.13,0.33-0.2c0.6-0.35,1.23-0.7,1.88-1.06
		l0.13-0.06c0.06-0.83,0.13-1.64,0.13-2.47l-0.26,0.13c-0.77,0.45-1.51,0.87-2.21,1.25c-0.9,0.55-1.73,1.06-2.57,1.57
		c-0.54,0.35-1.09,0.71-1.6,1.03c-0.54,0.35-1.09,0.67-1.6,0.99c0.03,0.77,0.07,1.57,0.1,2.34c0.38-0.26,0.8-0.51,1.22-0.8
		C120.14,32.86,120.78,32.47,121.42,32.06z"/>
	<path class="st0" d="M121.42,27.09c0.83-0.51,1.67-1.03,2.57-1.57c0.71-0.42,1.44-0.83,2.21-1.25l0.03-0.01l0.14-0.05
		c0.06,0.74,0.1,1.54,0.1,2.31l-0.26,0.13c-0.77,0.42-1.51,0.83-2.21,1.25c-0.9,0.54-1.73,1.06-2.57,1.57
		c-0.64,0.42-1.28,0.8-1.89,1.19c-0.45,0.29-0.9,0.55-1.32,0.83c0-0.32,0-0.64,0-0.96c0-0.48,0-0.96-0.03-1.38
		c0.55-0.35,1.09-0.67,1.63-1.03C120.33,27.76,120.88,27.44,121.42,27.09z"/>
	<path class="st0" d="M126.2,22.98L126.2,22.98L126.2,22.98z M123.99,25.29c0.71-0.42,1.44-0.83,2.21-1.25l0.13-0.06
		c-0.03-0.35-0.06-0.67-0.13-0.99c-0.06-0.42-0.13-0.8-0.22-1.19c-0.67,0.35-1.35,0.74-1.99,1.12c-0.9,0.51-1.73,1.06-2.57,1.57
		c-0.54,0.35-1.09,0.67-1.6,1.03c-0.58,0.35-1.15,0.7-1.73,1.06c0.07,0.71,0.1,1.48,0.1,2.31c0.45-0.26,0.9-0.54,1.35-0.83
		c0.61-0.39,1.25-0.8,1.89-1.19C122.26,26.35,123.09,25.8,123.99,25.29z"/>
	<path class="st0" d="M121.42,21.86c0.83-0.51,1.67-1.03,2.57-1.54c0.71-0.42,1.44-0.83,2.21-1.25c0.45-0.26,0.9-0.48,1.38-0.74
		c-0.42,0.58-0.9,1.19-1.38,1.83c-0.16,0.19-0.32,0.42-0.48,0.61c0.06,0.29,0.16,0.54,0.22,0.83c-0.67,0.35-1.31,0.7-1.96,1.09
		c-0.9,0.51-1.73,1.02-2.57,1.54c-0.64,0.42-1.28,0.8-1.89,1.19c-0.48,0.32-0.96,0.64-1.44,0.93c-0.06-0.83-0.13-1.57-0.22-2.24
		c0.64-0.39,1.28-0.8,1.96-1.22C120.33,22.56,120.88,22.21,121.42,21.86z"/>
	<g>
		<path class="st0" d="M126.2,18.85v-2.41l0,0V18.85L126.2,18.85z M121.42,21.64c0.83-0.51,1.67-1.03,2.57-1.57
			c0.71-0.38,1.44-0.8,2.21-1.22c0.51-0.29,1.06-0.58,1.6-0.86c0.8-1.12,1.47-2.12,2.02-2.98c-0.13-0.06-0.26-0.13-0.38-0.19
			c-1.16,0.54-2.21,1.09-3.24,1.63c-0.77,0.42-1.51,0.83-2.21,1.25c-0.9,0.55-1.73,1.06-2.57,1.57c-0.54,0.35-1.09,0.7-1.6,1.03
			c-0.83,0.51-1.6,0.99-2.37,1.48c0.16,0.67,0.29,1.38,0.39,2.12c0.58-0.32,1.12-0.7,1.7-1.06
			C120.14,22.44,120.78,22.05,121.42,21.64z"/>
	</g>
	<path class="st0" d="M121.42,16.66c0.83-0.51,1.67-1.03,2.57-1.57c0.71-0.42,1.44-0.83,2.21-1.25c0.39-0.23,0.77-0.42,1.15-0.61
		c0.61,0.54,1.22,1.02,1.89,1.44c-1.06,0.51-2.08,1.03-3.05,1.54c-0.77,0.42-1.51,0.83-2.21,1.25c-0.9,0.51-1.73,1.06-2.57,1.57
		c-0.64,0.38-1.28,0.8-1.89,1.19c-0.74,0.45-1.44,0.9-2.12,1.35c-0.16-0.67-0.35-1.35-0.54-2.05c0.96-0.58,1.92-1.19,2.95-1.83
		C120.33,17.34,120.88,17.02,121.42,16.66z"/>
	<g>
		<path class="st0" d="M126.2,13.62v-1.6c0.32,0.38,0.67,0.74,1.03,1.06c-0.32,0.17-0.64,0.32-0.93,0.49
			C126.26,13.58,126.23,13.6,126.2,13.62L126.2,13.62L126.2,13.62z M126.2,12.02c-0.13-0.16-0.29-0.35-0.45-0.55
			c-0.61,0.35-1.19,0.67-1.76,1.03c-0.9,0.51-1.73,1.06-2.57,1.57c-0.54,0.32-1.09,0.67-1.6,0.99c-1.25,0.8-2.44,1.54-3.62,2.25
			c0.23,0.74,0.42,1.38,0.61,2.02c0.9-0.55,1.8-1.12,2.73-1.7c0.61-0.42,1.25-0.8,1.89-1.22c0.83-0.51,1.67-1.03,2.57-1.54
			c0.71-0.42,1.44-0.83,2.21-1.25V12.02z"/>
	</g>
	<polygon class="st0" points="109.21,51.71 109.11,51.71 109.21,51.78 109.21,51.71 	"/>
	<g>
		<path class="st0" d="M100.32,16.22v2.37V16.22L100.32,16.22z M109.21,16.15c-0.16-0.26-0.32-0.54-0.48-0.83
			c-2.37,0.64-5.1,0.96-8.4,0.9c-0.16,0-0.35-0.03-0.51-0.03c-2.82-0.1-5.1-0.83-7.05-2.09c-0.22-0.16-0.45-0.29-0.67-0.45
			c-0.26,0.45-0.48,0.93-0.74,1.44c0.45,0.42,0.93,0.8,1.41,1.16c1.99,1.38,4.36,2.21,7.31,2.31l0.26,0.03
			c3.56,0.1,6.38-0.29,8.88-0.99c0.19-0.06,0.42-0.13,0.64-0.19C109.62,16.99,109.43,16.57,109.21,16.15z"/>
	</g>
	<path class="st0" d="M109.21,20.22c-2.5,0.7-5.32,1.06-8.88,0.96h-0.26c-0.19,0-0.42-0.03-0.64-0.03c-0.74-0.55-1.38-0.8-1.99-0.8
		c-0.35,0-0.71,0.06-1.06,0.26c-1.35-0.42-2.53-0.99-3.62-1.76c-0.8-0.54-1.57-1.22-2.24-1.95c0.06-0.19,0.16-0.39,0.26-0.61
		c0.13-0.26,0.26-0.54,0.38-0.8c0.51,0.45,1.06,0.86,1.6,1.22c1.96,1.25,4.23,1.99,7.05,2.12c0.16,0,0.35,0,0.51,0
		c3.53,0.1,6.38-0.29,8.88-0.99c0.22-0.07,0.48-0.16,0.71-0.23c0.35,0.67,0.64,1.38,0.9,2.08C110.3,19.87,109.75,20.06,109.21,20.22
		z"/>
	<g>
		<path class="st0" d="M109.21,23.01v2.4c-1.63,0.48-3.4,0.8-5.39,0.93c-0.51-0.8-1.02-1.57-1.64-2.31
			C104.88,23.98,107.15,23.59,109.21,23.01L109.21,23.01L109.21,23.01z M109.21,25.42c0.99-0.29,1.92-0.61,2.85-0.99
			c-0.13-0.74-0.29-1.48-0.48-2.21c-0.77,0.29-1.54,0.58-2.37,0.8V25.42z"/>
	</g>
	<path class="st0" d="M109.21,36.06c-2.5,0.7-5.35,1.09-8.88,0.99c-0.16,0-0.35,0-0.51,0c-2.82-0.1-5.1-0.87-7.05-2.12
		c-2.28-1.44-4.04-3.62-5.55-6.19c-0.03,0.39-0.03,0.8-0.03,1.16c0,0.16,0,0.32,0,0.48c1.51,2.76,3.27,5.1,5.58,6.7
		c1.99,1.38,4.36,2.25,7.31,2.34h0.26c3.56,0.1,6.38-0.26,8.88-0.96c1.09-0.32,2.12-0.71,3.11-1.12c0.03-0.87,0.06-1.73,0.06-2.44
		C111.35,35.36,110.3,35.74,109.21,36.06z"/>
	<g>
		<path class="st0" d="M109.21,38.66v2.41c-1.28,0.35-2.66,0.64-4.17,0.8c0.22-0.32,0.38-0.67,0.51-0.99
			c-1.89-0.13-3.62-0.32-5.23-0.58c-0.48-0.08-0.94-0.16-1.39-0.25c-2.43-0.48-4.5-1.15-6.18-1.97c-3.14-1.57-4.94-3.75-5.45-6.54
			c1.48,2.5,3.24,4.59,5.45,6.03c1.96,1.22,4.23,1.99,7.05,2.08c0.16,0,0.35,0,0.51,0C103.85,39.75,106.71,39.37,109.21,38.66
			L109.21,38.66L109.21,38.66z M109.21,41.07c1.06-0.29,2.05-0.67,3.01-1.06c0.03-0.77,0.06-1.64,0.1-2.47
			c-0.99,0.45-2.02,0.8-3.11,1.12V41.07z"/>
	</g>
	<g>
		<path class="st0" d="M141.72,41.35v-1.35c1.09,0.16,2.24,0.32,3.43,0.48C143.93,40.78,142.81,41.07,141.72,41.35L141.72,41.35
			L141.72,41.35z M121.42,47.93c0.83-0.48,1.67-1.03,2.57-1.54c0.71-0.42,1.44-0.83,2.21-1.25c3.14-1.7,6.86-3.43,11.64-5l0,0v2.4
			c-4.78,1.57-8.5,3.27-11.64,4.97c-0.77,0.42-1.51,0.83-2.21,1.25c-0.9,0.51-1.73,1.03-2.57,1.54c-0.64,0.42-1.28,0.8-1.89,1.22
			c-0.8,0.48-1.6,0.99-2.37,1.47l-2.89-0.03v-0.71c1.83-0.96,3.62-2.08,5.55-3.3l0.29-0.18C120.54,48.5,120.98,48.21,121.42,47.93
			L121.42,47.93z M141.72,39.75v-0.8c-0.22,0.06-0.43,0.12-0.64,0.18c-1.14,0.33-2.21,0.65-3.24,1.01v2.4
			c1.22-0.42,2.5-0.8,3.88-1.19V39.75L141.72,39.75z M141.72,40.01c-0.13-0.03-0.26-0.06-0.38-0.06c0.1-0.06,0.22-0.13,0.38-0.19
			c0.58-0.29,1.54-0.8,2.82-1.54c-0.99,0.26-1.92,0.48-2.82,0.74l0,0V40.01L141.72,40.01z M114.27,52.26
			c-0.45,0.23-0.9,0.45-1.38,0.67c0.32,0.03,0.67,0.03,0.99,0.03h0.38V52.26z"/>
	</g>
	<g>
		<path class="st0" d="M114.27,41.61c0.45-0.22,0.9-0.48,1.35-0.74c-0.42,0.13-0.87,0.23-1.35,0.26V41.61L114.27,41.61L114.27,41.61
			z M109.21,41.26c-1.31,0.38-2.76,0.67-4.3,0.83c-0.54,0.83-1.28,1.7-2.12,2.57l0.11,0l0.11-0.01l0.11-0.01l0.11-0.01l0.11-0.01
			c0.85-0.05,1.7-0.13,2.55-0.26v0l0.1-0.01v0l0.1-0.02v0l0.1-0.02v0l0.1-0.02v0l0.1-0.02v0l0.1-0.02v0l0.1-0.02v0l0.1-0.02v0
			l0.1-0.02v0l0.1-0.02v0l0.1-0.02v0l0.1-0.02v0l0.1-0.02v0l0.1-0.02v0l0.1-0.02v0l0.1-0.02v0l0.09-0.02v0l0.09-0.02v0l0.09-0.02v0
			l0.09-0.02v0l0.09-0.02v0l0.09-0.02v0l0.09-0.02v0l0.09-0.02v0l0.09-0.02v0l0.09-0.02v0l0.09-0.02v0l0.09-0.02v0l0.09-0.02v0
			l0.01,0l0.08-0.02v0l0.09-0.02v0l0.09-0.02v0l0.09-0.02v0l0.09-0.03v0l0.09-0.03v0V41.26L109.21,41.26L109.21,41.26z
			 M109.21,43.66v-2.4c1.03-0.29,2.02-0.64,2.98-1.06c0,0.35-0.03,0.7-0.03,0.99c0.74,0,1.44,0,2.12-0.06l0,0v0.48
			C112.67,42.44,111.03,43.15,109.21,43.66z"/>
	</g>
	<path class="st0" d="M90.53,52.03l0.06,0.13l0.96-0.03l-0.03-0.03C91.33,52.1,90.98,52.07,90.53,52.03L90.53,52.03z"/>
	<path class="st0" d="M92.5,52.58l1.25,0.8l6.57-0.03l5.32-0.03l0.45-0.93c-1.73,0.26-3.62,0.39-5.77,0.32c-0.16,0-0.35,0-0.51,0
		c-2.15-0.1-3.98-0.55-5.58-1.32C93.66,51.79,93.06,52.16,92.5,52.58z"/>
	<path class="st0" d="M93.1,53.38C92.74,53.2,92.5,53,92.15,52.8c-0.29,0.19-0.58,0.39-0.87,0.58L93.1,53.38z"/>
	<g>
		<path class="st0" d="M109.21,33.24l0.1-0.03c1.06-0.31,2.08-0.69,3.08-1.13v-2.37C110.47,31.84,110.79,31.48,109.21,33.24
			L109.21,33.24L109.21,33.24z M112.38,29.71l-3.17,3.53c-2.5,0.7-5.32,1.09-8.88,0.99l-0.26-0.03c-2.95-0.1-5.32-0.93-7.31-2.31
			c-2.12-1.47-3.78-3.56-5.19-6.03c0.1-0.42,0.16-0.87,0.29-1.28c1.35,2.12,2.95,3.88,4.91,5.16c4.51,2.88,11.18,2.52,16.18,1.16
			C109.03,30.89,112.29,29.74,112.38,29.71z"/>
	</g>
	<path class="st0" d="M92.76,24.07c0.22,0.13,0.42,0.29,0.64,0.42c0.29-0.67,0.58-1.22,0.9-1.73c-0.55-0.26-1.06-0.51-1.54-0.83
		c-1.19-0.77-2.24-1.73-3.17-2.82c-0.19,0.42-0.35,0.87-0.51,1.28C90.16,21.83,91.35,23.08,92.76,24.07z"/>
	<path class="st0" d="M92.76,19.33c0.99,0.61,2.08,1.12,3.27,1.48c-0.55,0.35-1.06,0.9-1.54,1.67c-0.61-0.29-1.19-0.64-1.73-0.99
		c-1.12-0.8-2.12-1.73-3.01-2.82c0.19-0.45,0.38-0.9,0.58-1.35C91.06,18.08,91.89,18.75,92.76,19.33z"/>
	<path class="st0" d="M92.76,32.34c1.96,1.25,4.23,1.99,7.05,2.08c0.16,0.03,0.35,0.03,0.51,0.03c0.55,0.01,1.09,0.01,1.61,0
		c2.81-0.05,5.17-0.4,7.28-0.99l0,0v2.41c-3.04,0.86-6,0.96-9.14,0.96c-2.95-0.13-5.32-0.96-7.31-2.34
		c-2.24-1.57-4.01-3.85-5.48-6.54c0.03-0.45,0.1-0.93,0.16-1.41C88.91,28.95,90.61,30.97,92.76,32.34L92.76,32.34z M109.21,35.87
		c1.09-0.32,2.15-0.71,3.17-1.15v-2.4c-1.03,0.45-2.08,0.83-3.17,1.15V35.87z"/>
	<g>
		<path class="st0" d="M109.21,28.24l-0.07,0.02c-2.49,0.69-5.32,1.07-8.82,0.98v2.37c3.56,0.1,6.38-0.26,8.88-0.96V28.24
			L109.21,28.24z M109.21,30.64v-2.4c1.09-0.32,2.12-0.71,3.11-1.12c0.03,0.48,0.06,0.96,0.06,1.44v0.93
			c-1,0.44-2.02,0.81-3.08,1.12L109.21,30.64L109.21,30.64L109.21,30.64z M92.76,29.3c-1.89-1.35-3.46-3.17-4.78-5.35
			c0.09-0.39,0.22-0.83,0.35-1.25c2.85,4.09,6.94,6.54,11.99,6.54v2.37C97.6,31.61,95.01,30.86,92.76,29.3z"/>
	</g>
	<path class="st0" d="M109.21,28.05c1.09-0.32,2.12-0.71,3.11-1.15c-0.03-0.77-0.13-1.54-0.22-2.28c-0.93,0.38-1.89,0.74-2.89,1.03
		c-1.6,0.45-3.3,0.77-5.26,0.9c0.39,0.67,0.77,1.35,1.09,2.02c-1.64,0-3.24-0.13-4.71-0.42c-2.69-0.51-5.1-1.47-7.28-2.89
		c0.06-0.16,0.13-0.29,0.19-0.45c-0.16-0.1-0.32-0.19-0.48-0.29c-1.47-0.93-2.73-2.18-3.85-3.62c-0.16,0.42-0.29,0.83-0.42,1.25
		c1.22,1.83,2.6,3.37,4.26,4.52c1.99,1.38,4.36,2.21,7.31,2.34h0.26C103.88,29.11,106.71,28.75,109.21,28.05z"/>
	<g>
		<path class="st0" d="M100.32,15.96v-2.37c2.63,0.06,4.87-0.13,6.89-0.51l0.03,0.03c0.48,0.67,0.93,1.38,1.35,2.05
			C106.26,15.77,103.6,16.06,100.32,15.96L100.32,15.96L100.32,15.96z M100.32,13.59c-0.16,0-0.35,0-0.51,0
			c-2.6-0.1-4.75-0.74-6.57-1.8c-0.16,0.22-0.32,0.45-0.48,0.71c-0.16,0.26-0.32,0.51-0.45,0.8c0.13,0.13,0.29,0.23,0.45,0.35
			c1.99,1.38,4.36,2.21,7.31,2.31h0.26V13.59z"/>
	</g>
	<g>
		<path class="st0" d="M100.32,10.77V8.39c0.87,0,1.67,0,2.47-0.03c0.77,0.54,1.57,1.28,2.4,2.21
			C103.72,10.73,102.12,10.8,100.32,10.77L100.32,10.77L100.32,10.77z M100.32,8.39c-1.13,0-2.3-0.15-3.4-0.39
			c-0.67,0.39-1.35,0.93-1.99,1.64c1.51,0.64,3.21,1.02,5.13,1.12h0.26V8.39z"/>
	</g>
	<path class="st0" d="M100.32,7.24c-0.19-0.03-0.38-0.03-0.54-0.03c-0.83,0-1.67,0.19-2.47,0.61c0.87,0.19,1.8,0.29,2.76,0.32h0.26
		c0.74,0.03,1.48,0.03,2.15,0.03C101.73,7.65,101,7.33,100.32,7.24z"/>
	<path class="st0" d="M52.44,52.25c4.2-0.67,8.77-0.85,12.99-0.13l0,0v0.1L52.44,52.25z"/>
	<path class="st0" d="M49.81,47.57c4.69-0.92,9.5-1.31,14.33-0.83c0.42,0.19,0.83,0.42,1.28,0.61c1.99,0.86,4.46,1.57,7.12,2.18
		c1.37,0.77,2.31,1.83,3.56,2.66h-0.29h-2.64c-6.35-4.21-16.16-3.92-23.56-2.28C49.65,49.07,49.71,48.37,49.81,47.57z"/>
	<path class="st0" d="M50.99,42.09c3.43-0.75,6.93-0.8,10.42-0.8c-0.13,0.19-0.23,0.39-0.29,0.58c-0.23,0.64-0.26,1.22-0.1,1.8
		c-3.6,0-7.22,0.17-10.74,0.96C50.48,43.76,50.71,42.92,50.99,42.09z"/>
	<path class="st0" d="M53.53,36.44c3.85-0.36,8.03-0.63,11.9,0.03c-0.77,0.64-1.47,1.35-2.12,2.08c-3.67-0.34-7.5-0.12-11.13,0.48
		C52.57,38.14,53.01,37.28,53.53,36.44z"/>
	<path class="st0" d="M60.58,33.21c2.66,0,5.4,0.35,7.95,1.12c0.8-0.45,1.63-0.87,2.5-1.25c-3.09-1.49-6.49-2.14-9.91-2.21
		c-0.26-0.03-0.55-0.03-0.8-0.03c-0.96,0-1.86,0.03-2.73,0.06c-0.71,0.83-1.41,1.67-2.05,2.5C57.09,33.3,58.72,33.21,60.58,33.21z"
		/>
	<path class="st0" d="M57.82,30.57c2.55-0.09,5.08-0.01,7.6,0.42c2.28,0.38,4.26,1.03,6.03,1.89c0.61-0.26,1.22-0.51,1.83-0.74
		c0.13-0.06,0.26-0.1,0.38-0.16c-0.13-0.1-0.26-0.16-0.38-0.26c-2.18-1.44-4.78-2.5-7.86-3.05c-1.31-0.26-2.76-0.42-4.3-0.45
		c-0.26,0-0.55,0-0.8,0h-0.07C59.39,29.04,58.56,29.74,57.82,30.57z"/>
	<path class="st0" d="M57.18,25.48c2.72-0.17,5.55-0.14,8.24,0.32c3.08,0.51,5.64,1.51,7.86,2.88c1.14,0.69,2.1,1.53,3.11,2.37
		c0.45-0.16,0.93-0.29,1.41-0.45l0.05-0.02l-0.05-0.05c-0.61-0.74-1.28-1.41-1.99-2.05c-5.65-5.18-13.01-6.06-20.33-5.19
		c0.22,0.51,0.51,0.89,0.9,1.34C56.54,24.87,56.83,25.16,57.18,25.48z"/>
	<path class="st0" d="M54.94,20.64c9.67-0.78,18.4,1.18,24.56,9.51l0,0l-1.19,0.35L77.8,29.9c-1.29-1.5-2.86-2.78-4.52-3.85
		c-2.21-1.35-4.78-2.37-7.86-2.89c-1.31-0.22-2.76-0.35-4.3-0.38c-0.19,0-0.39,0-0.55,0c-1.92,0-3.62,0.06-5.19,0.22
		C55.1,22.27,54.94,21.5,54.94,20.64z"/>
	<path class="st0" d="M54.94,20.44c9.29-1.22,19.67,1.03,25.01,9.59l0.96-0.26c-2.02-3.55-4.8-6.57-8.21-8.85
		c-0.77,0.26-1.57,0.51-2.37,0.77c-1.67-1.28-3.11-2.41-4.33-3.34c-3.63-0.61-7.1-0.56-10.77-0.25
		C55.03,18.97,54.94,19.67,54.94,20.44z"/>
	<path class="st0" d="M56.12,15.12c2.61-0.19,5.22-0.24,7.82,0.03c0.45-0.61,0.93-1.19,1.47-1.73c0.13-0.13,0.22-0.22,0.35-0.32
		c-2.72-0.67-5.78-0.54-8.56-0.45C56.8,13.52,56.44,14.32,56.12,15.12z"/>
	<path class="st0" d="M63.11,38.78c-3.63-0.36-7.54,0.02-11.06,0.48c-0.35,0.83-0.7,1.7-0.99,2.6c3.69-0.77,6.76-0.8,10.48-0.8
		C62.02,40.26,62.54,39.49,63.11,38.78z"/>
	<path class="st0" d="M61.13,43.91v-0.03c-3.65,0-7.31,0.14-10.87,0.96c-0.19,0.83-0.32,1.67-0.42,2.5
		c4.4-1.05,9.21-1.25,13.75-0.96C62.38,45.68,61.51,44.84,61.13,43.91z"/>
	<path class="st0" d="M55.39,33.65c4.28-0.37,8.65-0.33,12.79,0.9c-0.87,0.51-1.7,1.09-2.47,1.7c-4.13-0.63-7.76-0.58-12.06-0.03
		C54.17,35.35,54.75,34.49,55.39,33.65z"/>
	<path class="st0" d="M55.26,17.78c3.35-0.27,6.84-0.37,10.16,0.19v-0.06l0,0c-0.87-0.67-1.57-1.25-2.18-1.7
		c0.16-0.29,0.35-0.54,0.51-0.83c-2.53-0.3-5.2-0.22-7.73-0.03C55.71,16.21,55.45,17.01,55.26,17.78z"/>
	<path class="st0" d="M71.32,9.74c-3.41-1.71-7.19-2.34-10.97-2.34c-0.56,0.75-1.07,1.56-1.54,2.37c3.33,0,6.59,0.11,9.81,1.15
		C69.53,10.38,70.42,9.99,71.32,9.74z"/>
	<polygon class="st0" points="65.42,17.97 65.52,17.97 65.42,17.91 65.42,17.97 	"/>
	<path class="st0" d="M65.42,52.22v-0.1c0.16,0.03,0.29,0.06,0.45,0.1H65.42L65.42,52.22z"/>
	<path class="st0" d="M72.67,52.22c-6.48-3.95-15.84-3.61-23.05-1.99c0,0.26,0,0.55,0,0.8c0,0.42-0.03,0.83-0.03,1.22l0,0h1.67
		c5.23-1.06,10.71-1.19,15.93-0.03H72.67z"/>
	<path class="st0" d="M65.42,10.44"/>
	<path class="st0" d="M57.31,12.43c2.82-0.24,5.41-0.14,8.11,0.32v0c0.22,0.03,0.38,0.06,0.58,0.1c0.71-0.62,1.47-1.23,2.28-1.73
		c-3.07-0.99-6.44-1.12-9.62-1.12C58.18,10.86,57.73,11.66,57.31,12.43z"/>
	<path class="st0" d="M75.17,9.67c-1.21-0.2-2.11-0.22-3.3-0.06c-1.89-0.96-4.01-1.67-6.45-2.08v0c-1.59-0.27-3.23-0.39-4.84-0.39
		h-0.06c0.59-0.79,1.19-1.59,1.86-2.31C67.31,5.26,72.18,6.78,75.17,9.67z"/>
	<path class="st0" d="M79.11,10.6l1.57,0.42c-2.5-4.17-5.86-7.7-10.46-9.59c-1.68-0.22-3.31,0.05-4.81,0.87v0.03
		c3.08,0.51,5.64,1.51,7.86,2.88l0,0C75.52,6.66,77.49,8.48,79.11,10.6z"/>
	<path class="st0" d="M77.8,4.48L77.8,4.48L77.8,4.48z"/>
	<path class="st0" d="M71.39,1.56c3.24,1.54,5.99,4.09,8.11,6.96V6.69c-0.08-0.12-0.17-0.24-0.25-0.35
		c-0.46-0.64-0.93-1.26-1.45-1.86v0c-0.13-0.16-0.29-0.32-0.45-0.51c-0.48-0.32-1.03-0.64-1.54-0.93v0
		C74.4,2.3,72.94,1.87,71.39,1.56L71.39,1.56z M80.11,7.59c0.79,1.23,1.51,2.52,2.12,3.85l-1-0.23c-0.56-0.91-1.1-1.83-1.73-2.69
		V6.69C79.71,6.97,79.93,7.28,80.11,7.59L80.11,7.59L80.11,7.59L80.11,7.59z"/>
	<path class="st0" d="M65.42,2.62c5.11,0.91,9.84,3.62,12.99,7.79c-0.87-0.24-1.76-0.47-2.64-0.68c-2.68-2.69-6.68-4.19-10.35-4.81
		V2.62L65.42,2.62z M65.42,2.62c-0.13-0.03-0.25-0.06-0.38-0.06c-0.8,0.51-1.64,1.19-2.44,2.05c0.99,0.07,1.92,0.19,2.82,0.32V2.62z
		"/>
	<g>
		<path class="st0" d="M77.8,52.19v-0.77l0,0V52.19L77.8,52.19z M75.81,51.39c0.29,0.26,0.58,0.55,0.87,0.8h1.12h0.64
			c-0.19-0.26-0.42-0.51-0.64-0.77c-0.29-0.39-0.61-0.71-0.93-1.06c-0.35-0.06-0.71-0.13-1.06-0.19c-0.74-0.13-1.47-0.26-2.18-0.42
			C74.4,50.26,75.14,50.81,75.81,51.39z"/>
	</g>
	<path class="st0" d="M74.11,31.83l1.83-0.64l-0.13-0.1c-0.77-0.71-1.64-1.38-2.53-1.96c-2.18-1.44-4.78-2.5-7.86-3.08
		c-1.31-0.22-2.76-0.38-4.3-0.42c-0.26,0-0.55,0-0.8,0c-1.06,0-2.02,0-2.98,0.06c0.64,0.61,1.54,1.38,2.63,2.31
		c0.19,0,0.39,0,0.61,0c0.16,0,0.35,0,0.55,0c1.54,0.03,2.98,0.16,4.3,0.38c3.08,0.51,5.64,1.51,7.86,2.89
		C73.57,31.47,73.82,31.64,74.11,31.83z"/>
	<g>
		<path class="st0" d="M80.11,52.19v-0.04v-0.22l0,0V52.19L80.11,52.19z M77.8,50.74c0.42,0.48,0.83,0.96,1.22,1.44h0.48h0.29h0.32
			h0.16c-0.06-0.1-0.1-0.19-0.16-0.26c-0.1-0.16-0.22-0.32-0.32-0.48c-0.1-0.16-0.19-0.32-0.29-0.45c-0.06-0.1-0.13-0.16-0.19-0.26
			c-0.48-0.06-0.99-0.13-1.51-0.22l-0.26-0.03C77.64,50.55,77.73,50.65,77.8,50.74z"/>
	</g>
	<path class="st0" d="M79.5,18.94L79.5,18.94L79.5,18.94z"/>
	<path class="st0" d="M77.77,19.42c2.64,2.66,4.43,6.23,5.9,9.65l0.54-0.13c-1.25-3.46-3.06-6.9-5.19-9.88L77.77,19.42z"/>
	<polygon class="st0" points="79.5,30.16 79.5,30.13 79.5,30.16 	"/>
	<path class="st0" d="M78.95,5.21c1.54,1.81,2.69,4.02,3.75,6.13h0.03c0.22-0.13,0.35-0.35,0.39-0.67
		C82.12,8.65,80.68,6.67,78.95,5.21z"/>
	<path class="st0" d="M81.55,52.19h0.16h0.03l-0.03-0.06c-0.06-0.13-0.1-0.22-0.16-0.35c-0.16-0.26-0.29-0.51-0.42-0.77
		c-0.35-0.03-0.7-0.1-1.03-0.13l-0.19-0.03c0.06,0.1,0.13,0.16,0.19,0.26c0.23,0.35,0.48,0.74,0.71,1.09H81.55z"/>
	<path class="st0" d="M81.36,29.65l0.87-0.29c-1.2-2.4-2.67-4.59-4.43-6.63c-0.61-0.7-1.28-1.41-1.99-2.05
		c-0.19-0.19-0.38-0.35-0.58-0.51l-2.09,0.64l0.13,0.06c0.9,0.54,1.76,1.19,2.53,1.86C78.06,24.66,79.89,27.08,81.36,29.65z"/>
	<path class="st0" d="M81.71,51.16c0.19,0.32,0.38,0.67,0.58,1.03h0.45h0.29c-0.1-0.22-0.19-0.42-0.29-0.61
		c-0.06-0.13-0.13-0.26-0.16-0.38c-0.29-0.03-0.58-0.06-0.86-0.1h-0.03L81.71,51.16z"/>
	<path class="st0" d="M83.22,29.2l-0.64,0.13c-1.76-3.63-4.06-6.49-6.89-9.33c0.54-0.13,1.07-0.31,1.6-0.45
		C79.88,22.12,81.83,25.86,83.22,29.2z"/>
	<path class="st0" d="M83.8,52.19h0.35c-0.13-0.26-0.22-0.55-0.35-0.8v-0.03c-0.23-0.03-0.45-0.06-0.71-0.1
		c0.16,0.32,0.29,0.61,0.45,0.93H83.8z"/>
	<path class="st0" d="M84.79,52.19h0.35c-0.06-0.22-0.16-0.48-0.26-0.71h-0.1l-0.48-0.06c0.13,0.26,0.22,0.51,0.32,0.77H84.79z"/>
	<path class="st0" d="M84.79,28.81l-0.1,0.03c-0.61-1.5-1.28-2.96-1.96-4.43c-0.32-0.64-0.67-1.31-1.03-1.95
		c-0.09-0.13-0.17-0.27-0.26-0.41c-0.45-0.74-0.86-1.53-1.34-2.25c-0.1-0.13-0.22-0.29-0.32-0.45c-0.1-0.13-0.19-0.29-0.29-0.42
		l0.99-0.26c0.46,0.69,0.77,1.47,1.22,2.15c0.35,0.67,0.71,1.38,1.03,2.05c0.35,0.8,0.74,1.6,1.06,2.44c0.35,0.8,0.67,1.6,0.99,2.44
		c0.13,0.32,0.26,0.64,0.35,0.96L84.79,28.81z"/>
	<path class="st0" d="M85.72,52.19h0.42l-0.23-0.61h-0.19l-0.32-0.03c0.1,0.19,0.16,0.42,0.26,0.64H85.72z"/>
	<path class="st0" d="M86.04,28.52l-0.42,0.1c-0.59-1.5-1.16-3.02-1.83-4.49c-0.61-1.46-1.32-2.88-2.08-4.26
		c-0.06-0.1-0.1-0.19-0.16-0.32c-0.19-0.32-0.38-0.67-0.58-0.99l0.8-0.19l0.96,1.92c0.35,0.8,0.74,1.6,1.06,2.4
		c0.35,0.83,0.67,1.64,0.99,2.47C85.16,26.28,85.7,27.39,86.04,28.52z"/>
	<path class="st0" d="M86.39,27.43l0.1-0.32l-0.1-0.29l-0.03-0.1c-0.22-0.58-0.45-1.15-0.64-1.73c-0.32-0.83-0.61-1.64-0.93-2.47
		c-0.32-0.8-0.64-1.63-0.99-2.44c-0.29-0.67-0.58-1.35-0.87-2.02l-0.67,0.16l0.48,0.99c0.35,0.74,0.74,1.51,1.06,2.31
		c0.35,0.77,0.67,1.57,0.99,2.34c0.51,1.29,1.04,2.59,1.48,3.91L86.39,27.43z"/>
	<path class="st0" d="M86.39,24.23c0.19,0.51,0.35,0.99,0.55,1.47l-0.23,0.67c-0.33-0.9-0.66-1.8-0.99-2.69
		c-0.64-1.6-1.23-3.2-1.92-4.78c-0.13-0.29-0.26-0.61-0.42-0.93c0.19-0.05,0.38-0.09,0.58-0.13c0.29,0.71,0.54,1.38,0.83,2.08
		c0.32,0.8,0.61,1.64,0.93,2.44c0.19,0.61,0.42,1.19,0.64,1.76L86.39,24.23z"/>
	<polygon class="st0" points="86.42,51.64 86.62,52.19 87.1,52.19 86.91,51.71 86.42,51.64 	"/>
	<path class="st0" d="M87.29,24.04l0.1,0.26l-0.1,0.29l-0.13,0.39l-0.38-0.99c-0.13-0.35-0.26-0.7-0.39-1.09
		c-0.63-1.72-1.31-3.42-1.99-5.13c0.17-0.04,0.34-0.05,0.51-0.1c0.48,1.33,0.99,2.65,1.47,3.98L87.29,24.04z"/>
	<path class="st0" d="M87.29,18.84c0.29,0.8,0.61,1.6,0.93,2.37l0.06,0.19l-0.06,0.22l-0.16,0.51c-0.26-0.67-0.51-1.35-0.77-2.02
		c-0.16-0.45-0.32-0.9-0.51-1.38c-0.13-0.35-0.26-0.71-0.39-1.06l-0.1-0.29l0.45-0.06L87.29,18.84z"/>
	<path class="st0" d="M87.42,51.74l0.16,0.45h0.51c-0.06-0.13-0.13-0.26-0.16-0.38L87.42,51.74L87.42,51.74z"/>
	<path class="st0" d="M87.29,22.72c-0.16-0.45-0.32-0.9-0.51-1.35c-0.35-0.98-0.7-1.95-1.06-2.92c-0.13-0.29-0.22-0.61-0.35-0.9
		l0.45-0.06l0.58,1.54l0,0c0.29,0.8,0.61,1.6,0.9,2.4c0.16,0.48,0.35,0.96,0.55,1.41l-0.22,0.71C87.48,23.3,87.39,23.01,87.29,22.72
		z"/>
	<path class="st0" d="M87.64,17.21c0.37,0.9,0.76,1.81,1.09,2.73l-0.22,0.77c-0.43-1.14-0.84-2.31-1.31-3.42L87.64,17.21z"/>
	<path class="st0" d="M88.44,51.83l0.13,0.35h0.58c-0.03-0.1-0.07-0.19-0.13-0.29L88.44,51.83L88.44,51.83z"/>
	<path class="st0" d="M89.18,18.33l0.03,0.1l-0.03,0.1l-0.22,0.7c-0.29-0.68-0.5-1.43-0.83-2.08l0.51-0.07L89.18,18.33z"/>
	<path class="st0" d="M89.18,17.17c0.06,0.19,0.16,0.38,0.26,0.58c0.06-0.35,0.03-0.55-0.13-0.64c-0.03,0-0.06-0.03-0.13-0.03h-0.03
		L89.18,17.17z"/>
	<polygon class="st0" points="89.57,51.93 89.66,52.19 90.4,52.19 90.3,51.99 89.57,51.93 	"/>
	<path class="st0" d="M161.34,22.02c-1.15,0.13-2.27,0.29-3.33,0.45c1.22-0.77,2.34-1.38,3.33-1.8c1.28-0.58,2.34-0.83,3.24-0.83
		c2.5,0,4.74,0.42,6.73,1.25h-0.22C167.59,21.35,164.35,21.67,161.34,22.02z"/>
	<path class="st0" d="M176.6,31.38c-1.06,0.06-2.08,0.13-3.14,0.19c-0.87,0.07-1.7,0.13-2.57,0.19c-1.25,0.06-2.44,0.19-3.62,0.29
		c0.48,0.13,0.96,0.29,1.44,0.45c1.51,0.51,3.09,0.96,4.05,1.47l0.7,0c1.06-0.06,2.08-0.16,3.14-0.22c1.19-0.06,2.34-0.13,3.49-0.19
		c-0.06-0.83-0.22-1.6-0.38-2.37C178.66,31.25,177.63,31.32,176.6,31.38z"/>
	<g>
		<path class="st0" d="M161.34,22.24v2.4V22.24L161.34,22.24z M173.46,22.24c-0.55-0.35-1.16-0.71-1.76-0.96
			c-0.26,0-0.55,0.03-0.8,0.03c-3.43,0.26-6.6,0.58-9.56,0.93c-1.28,0.13-2.53,0.29-3.75,0.48c-1.35,0.83-2.79,1.86-4.39,3.08
			c2.53-0.42,5.23-0.83,8.14-1.16c3.01-0.38,6.25-0.67,9.75-0.93c0.8-0.06,1.57-0.13,2.37-0.16c0.51-0.06,1.06-0.1,1.57-0.13
			C174.52,23.01,174.01,22.6,173.46,22.24z"/>
	</g>
	<g>
		<path class="st0" d="M173.46,23.75v2.41V23.75L173.46,23.75z M176.6,25.03c-0.22-0.23-0.45-0.48-0.67-0.71
			c-0.22-0.26-0.45-0.48-0.67-0.7c-0.61,0.06-1.19,0.1-1.8,0.13c-0.87,0.07-1.7,0.13-2.57,0.19c-3.43,0.22-6.6,0.54-9.56,0.9
			c-0.48,0.06-0.95,0.11-1.41,0.17c-2.51,0.31-4.86,0.67-7.05,1.05c-0.42,0.32-0.83,0.64-1.28,0.99l-0.1,0.1
			c-0.96,0.74-1.83,1.44-2.66,2.08c0.87-0.19,1.73-0.35,2.66-0.51c2.98-0.55,6.25-1.06,9.84-1.47c3.01-0.35,6.25-0.67,9.75-0.93
			c0.8-0.07,1.57-0.1,2.37-0.16c1.06-0.06,2.08-0.13,3.14-0.23l0.67-0.03C177.05,25.61,176.83,25.32,176.6,25.03z"/>
	</g>
	<g>
		<path class="st0" d="M161.34,27.44v2.4V27.44L161.34,27.44z M176.6,26.16c-1.06,0.06-2.08,0.13-3.14,0.19
			c-0.87,0.06-1.7,0.13-2.57,0.19c-3.43,0.26-6.6,0.55-9.56,0.9c-3.59,0.42-6.86,0.93-9.84,1.47c-1.06,0.19-2.05,0.39-3.01,0.58
			c-0.67,0.54-1.31,1.03-1.92,1.51c-0.96,0.71-1.83,1.38-2.63,1.96c0.83-0.23,1.73-0.42,2.63-0.64c1.54-0.35,3.17-0.67,4.94-0.99
			c2.98-0.55,6.25-1.06,9.84-1.48c3.01-0.35,6.25-0.67,9.75-0.93c0.8-0.03,1.57-0.1,2.37-0.16c1.06-0.06,2.08-0.13,3.14-0.19
			c0.71-0.06,1.41-0.1,2.15-0.13c-0.38-0.83-0.83-1.6-1.35-2.31L176.6,26.16z"/>
	</g>
	<path class="st0" d="M176.6,36.38c-0.51,0.03-0.3,0.02-0.81,0.05c-0.61-1.01-2.07-2.05-2.61-2.25c0.07,0,0.42-0.02,0.5-0.02
		c0.98-0.06,1.94-0.12,2.93-0.18c1.19-0.06,2.37-0.13,3.53-0.19c0.06,0.67,0.1,1.41,0.1,2.15c0,0.06,0,0.16,0,0.22
		C179.04,36.22,177.82,36.29,176.6,36.38z"/>
	<path class="st0" d="M176.6,41.58c0.05,0,0.1-0.01,0.15-0.01c0.92-0.06,1.85-0.09,2.77-0.15c0.19-0.83,0.35-1.63,0.48-2.44
		l-3.17,0.18c-0.17,0.7-0.94,1.77-1.41,2.47L176.6,41.58z"/>
	<path class="st0" d="M176.77,38.97c1.14-0.06,2.13-0.12,3.27-0.18c0.13-0.83,0.19-1.63,0.19-2.4c-1.16,0.06-2.36,0.13-3.55,0.19
		c-0.02,0-0.72,0.06-0.75,0.06C176.4,37.37,176.65,38.06,176.77,38.97z"/>
	<polygon class="st1" points="59.01,58.68 58.79,59.53 59.38,60.17 59.48,60.24 59.64,60.18 59.62,59.01 59.43,58.79 	"/>
	<polygon class="st1" points="68.4,58.84 68.7,58.87 68.68,60.09 68.43,60.31 68.18,60.34 	"/>
	<path class="st1" d="M87.56,53.29l-0.09-0.08c-0.16,0.07-0.27,0.11-0.35,0.12c-0.07,0.02-0.16,0.02-0.27,0.02
		c-0.11,0-0.23-0.01-0.35-0.04c-0.12-0.03-0.25-0.07-0.39-0.13c-0.22-0.09-0.39-0.13-0.51-0.13c-0.21,0-0.39,0.13-0.55,0.39
		l0.07,0.07c0.15-0.05,0.25-0.07,0.3-0.07c0.06,0,0.12,0.01,0.19,0.03c0.07,0.02,0.15,0.05,0.25,0.09c0.16,0.07,0.29,0.11,0.4,0.14
		c0.11,0.02,0.22,0.03,0.34,0.03c0.21,0,0.38-0.03,0.52-0.1C87.26,53.58,87.41,53.46,87.56,53.29L87.56,53.29z M86.95,58.8
		c0-0.36-0.02-0.74-0.05-1.13c-0.04-0.51-0.12-1.11-0.24-1.8l-0.31-1.82c-0.19,0.36-0.34,0.67-0.45,0.93
		c-0.11,0.25-0.16,0.43-0.16,0.54c0,0.07,0.02,0.2,0.06,0.39c0.12,0.55,0.2,1.02,0.25,1.42c0.05,0.39,0.09,0.79,0.13,1.2
		c0.03,0.4,0.05,0.71,0.05,0.92c0,0.27-0.04,0.63-0.12,1.07l0.31,0.12c0.21-0.42,0.34-0.76,0.42-1.01
		C86.92,59.38,86.95,59.1,86.95,58.8L86.95,58.8z M85.58,60.41v-1.57c0-0.4-0.06-0.75-0.19-1.06c-0.13-0.31-0.31-0.59-0.54-0.83
		l-0.29,1.39c0.18,0.17,0.33,0.38,0.45,0.63c0.11,0.22,0.16,0.4,0.16,0.54c0,0.28-0.28,0.67-0.85,1.17
		c-0.41,0.36-0.73,0.61-0.97,0.75c-0.24,0.13-0.47,0.2-0.71,0.2c-0.22,0-0.42-0.03-0.61-0.11c-0.19-0.07-0.44-0.21-0.74-0.42
		l-0.22,0.32c0.64,0.44,1.11,0.73,1.41,0.88c0.35,0.17,0.67,0.26,0.97,0.26c0.25,0,0.56-0.14,0.91-0.42c0.32-0.25,0.6-0.55,0.84-0.9
		C85.46,60.9,85.58,60.62,85.58,60.41L85.58,60.41z M80.93,61.2L80,60.67l-0.43,0.83l-0.76-0.38l-0.53,1l0.96,0.52l0.41-0.81
		l0.73,0.41L80.93,61.2L80.93,61.2z M81.01,60.29v-1.34c0-0.63-0.05-1.1-0.14-1.42c-0.09-0.32-0.27-0.62-0.53-0.91l-0.41,1.22
		c0.19,0.22,0.31,0.37,0.36,0.46c0.1,0.16,0.17,0.36,0.21,0.59h-1.81l-0.01,1.4H81.01L81.01,60.29z M78.68,60.04
		c0,0.47-0.05,0.85-0.14,1.14c-0.09,0.29-0.24,0.52-0.45,0.69c-0.21,0.18-0.52,0.32-0.93,0.43c-0.4,0.11-0.82,0.17-1.26,0.17
		c-0.83,0-1.47-0.15-1.92-0.45c-0.45-0.3-0.68-0.73-0.68-1.29c0-0.48,0.07-0.91,0.22-1.3c0.16-0.43,0.46-1,0.92-1.7l0.31,0.22
		c-0.34,0.58-0.56,1-0.67,1.26c-0.1,0.26-0.16,0.53-0.16,0.81c0,0.36,0.19,0.65,0.58,0.88c0.38,0.23,0.89,0.34,1.52,0.34
		c0.62,0,1.14-0.12,1.56-0.35c0.42-0.24,0.63-0.53,0.63-0.87c0-0.21-0.04-0.42-0.11-0.63c-0.07-0.21-0.23-0.54-0.48-1l0.45-1.39
		c0.24,0.43,0.39,0.73,0.44,0.9C78.74,58.5,78.68,59.38,78.68,60.04L78.68,60.04z M76.99,56l-1.2-0.64l-0.62,1.16l1.2,0.63L76.99,56
		L76.99,56z M72.17,58.96c0,0.05-0.03,0.08-0.09,0.08c-0.19,0-0.51-0.12-0.96-0.37c0.11-0.2,0.17-0.34,0.2-0.43
		c0.03-0.09,0.05-0.21,0.07-0.38c0.22,0.2,0.4,0.41,0.55,0.62C72.1,58.7,72.17,58.86,72.17,58.96L72.17,58.96z M70.75,58.01
		c0,0.09-0.06,0.17-0.17,0.24c-0.04,0.02-0.09,0.05-0.17,0.09c-0.32-0.14-0.47-0.28-0.47-0.42c0-0.1,0.05-0.2,0.13-0.29
		c0.11-0.11,0.23-0.17,0.39-0.17c0.09,0,0.16,0.05,0.21,0.15C70.73,57.7,70.75,57.83,70.75,58.01L70.75,58.01z M72.78,59.2
		c0-0.35-0.11-0.76-0.34-1.25c-0.22-0.48-0.53-0.96-0.92-1.44c-0.43-0.52-0.9-0.96-1.41-1.31c-0.09,0.29-0.16,0.52-0.19,0.67
		c-0.04,0.16-0.07,0.38-0.12,0.65l0.25,0.19c-0.25,0.16-0.45,0.41-0.58,0.75c-0.12,0.31-0.18,0.67-0.18,1.08v0.19
		c-0.07,0.04-0.16,0.08-0.27,0.11c-0.12,0.03-0.23,0.05-0.33,0.05h-0.1l-0.13,1.4h0.23c0.26,0,0.52-0.04,0.78-0.11
		c0.32-0.1,0.6-0.25,0.83-0.45c0.41,0.26,0.81,0.47,1.2,0.63c0.33,0.14,0.57,0.21,0.72,0.21c0.16,0,0.3-0.18,0.43-0.55
		C72.73,59.72,72.78,59.45,72.78,59.2L72.78,59.2z M67.97,58.9h-0.19c-0.22,0-0.4-0.04-0.54-0.12c-0.14-0.08-0.2-0.18-0.2-0.31
		c0-0.1,0.03-0.19,0.09-0.28c0.06-0.08,0.15-0.13,0.25-0.13C67.68,58.07,67.87,58.34,67.97,58.9L67.97,58.9z M68.59,59.94
		c0,0.59-0.25,1.17-0.75,1.75c-0.5,0.57-0.99,0.86-1.48,0.86c-0.29,0-0.6-0.09-0.93-0.27c-0.34-0.18-0.86-0.54-1.55-1.07l0.22-0.3
		c0.37,0.25,0.67,0.41,0.91,0.49c0.2,0.07,0.42,0.1,0.66,0.1c0.33,0,0.66-0.09,0.99-0.28c0.38-0.22,0.78-0.57,1.19-1.06
		c-0.14,0.02-0.26,0.03-0.36,0.03c-0.34,0-0.61-0.11-0.81-0.33c-0.2-0.22-0.3-0.52-0.3-0.9c0-0.51,0.12-1.01,0.36-1.49
		c0.26-0.52,0.55-0.77,0.88-0.77c0.27,0,0.51,0.19,0.7,0.56c0.19,0.37,0.29,0.82,0.29,1.35V59.94L68.59,59.94z M65.94,60.29v-1.94
		c0-0.26-0.02-0.48-0.06-0.66c-0.04-0.18-0.11-0.37-0.2-0.59l-0.44,0.59c-0.07,0.09-0.11,0.14-0.11,0.16
		c-0.02,0.05-0.03,0.12-0.03,0.21c0,0.07,0.04,0.19,0.13,0.38c0.09,0.19,0.13,0.33,0.13,0.45c-0.17-0.02-0.34-0.06-0.5-0.1
		c-0.16-0.04-0.3-0.1-0.43-0.16c0.05-0.31,0.08-0.56,0.08-0.75c0-0.03,0-0.11-0.01-0.22c0-0.11-0.01-0.2-0.02-0.26l-0.2,0.15
		c-0.1,0.08-0.16,0.13-0.19,0.17c-0.05,0.06-0.08,0.14-0.08,0.22c0,0.38-0.11,0.65-0.32,0.79c-0.18,0.12-0.47,0.18-0.89,0.18h-0.63
		c-0.15,0-0.29-0.06-0.41-0.18c-0.12-0.12-0.18-0.26-0.18-0.44c0-0.17,0-0.33,0.01-0.47c0.01-0.14,0.01-0.26,0.02-0.37l-0.34-0.05
		c0,0.54-0.16,0.94-0.47,1.2c-0.24,0.2-0.54,0.3-0.9,0.3h-0.73l0.36,1.39l0.38,0.01c0.28,0,0.52-0.05,0.71-0.16
		c0.23-0.12,0.44-0.33,0.63-0.62c0.11,0.28,0.23,0.48,0.36,0.6c0.13,0.12,0.31,0.18,0.54,0.18h0.84c0.31,0,0.55-0.02,0.7-0.07
		c0.15-0.05,0.33-0.14,0.53-0.28c0.25,0.12,0.5,0.21,0.75,0.26C65.24,60.26,65.56,60.29,65.94,60.29L65.94,60.29z M65.35,55.37
		l-0.94-0.52l-0.43,0.83l-0.76-0.38l-0.53,1l0.92,0.52L64.05,56l0.73,0.41L65.35,55.37L65.35,55.37z M64.35,54.15l-0.51,1.07
		l-0.97-0.51l0.52-1.05L64.35,54.15L64.35,54.15z M58.58,58.74c0,0.05-0.04,0.07-0.11,0.07c-0.03,0-0.19-0.05-0.47-0.15
		c-0.09-0.04-0.23-0.09-0.4-0.15c0.09-0.31,0.2-0.46,0.34-0.46c0.12,0,0.26,0.1,0.43,0.31C58.51,58.53,58.58,58.66,58.58,58.74
		L58.58,58.74z M59.55,60.29c-0.36,0-0.78-0.07-1.27-0.21c-0.43-0.12-0.8-0.27-1.13-0.44c-0.2,0.3-0.44,0.49-0.73,0.59
		c-0.14,0.04-0.33,0.07-0.58,0.07h-0.66v-1.4h0.66c0.31,0,0.55-0.04,0.73-0.11c0.23-0.09,0.39-0.26,0.48-0.5
		c0.2-0.43,0.44-0.79,0.75-1.07c0.27-0.25,0.5-0.38,0.69-0.38c0.17,0,0.39,0.26,0.65,0.79c0.27,0.56,0.41,1.07,0.41,1.54V60.29
		L59.55,60.29z M55.18,60.29v-1.34c0-0.63-0.05-1.1-0.14-1.42c-0.09-0.32-0.27-0.62-0.53-0.91l-0.41,1.22
		c0.19,0.22,0.31,0.37,0.36,0.46c0.1,0.16,0.17,0.36,0.21,0.59h-2.34v1.4H55.18L55.18,60.29z M55.21,54.7l-1.2-0.64l-0.62,1.16
		l1.2,0.63L55.21,54.7L55.21,54.7z M52.32,60.29H50c-0.23,0-0.4-0.05-0.52-0.14c-0.15-0.12-0.22-0.31-0.22-0.57
		c0-0.15,0.01-0.31,0.02-0.49c0.02-0.18,0.04-0.35,0.07-0.53l0.2-0.01c0.03,0.12,0.09,0.21,0.18,0.26c0.09,0.05,0.21,0.08,0.34,0.08
		h1.77c-0.08-0.5-0.22-0.91-0.41-1.21c-0.16-0.25-0.39-0.46-0.67-0.65l0.37-1.6c0.45,0.33,0.76,0.76,0.94,1.28
		c0.17,0.48,0.26,1.12,0.26,1.92V60.29z"/>
	<g>
		<path class="st1" d="M160.79,10.36c0.04,0.17,0.05,0.38,0.05,0.62v1.84c-0.36,0-0.66-0.03-0.9-0.08
			c-0.24-0.05-0.48-0.14-0.71-0.25c-0.14,0.1-0.27,0.17-0.39,0.22c-0.04,0.02-0.07,0.03-0.11,0.04c-0.13,0.04-0.33,0.06-0.58,0.07
			h-0.88c-0.21,0-0.39-0.06-0.51-0.17c-0.13-0.11-0.24-0.3-0.35-0.56c-0.17,0.27-0.38,0.47-0.6,0.59c-0.19,0.09-0.41,0.15-0.67,0.15
			h-0.51c-0.05,0.09-0.11,0.19-0.19,0.3c-0.23,0.32-0.49,0.61-0.79,0.85c-0.34,0.27-0.62,0.4-0.86,0.4c-0.26,0-0.54-0.07-0.82-0.2
			c-0.04-0.01-0.07-0.03-0.1-0.05c-0.29-0.14-0.73-0.42-1.34-0.83l0.2-0.3c0.29,0.19,0.53,0.32,0.71,0.39
			c0.16,0.06,0.33,0.1,0.52,0.1c0.02,0.01,0.04,0.01,0.05,0.01c0.22,0,0.45-0.07,0.67-0.19c0.23-0.12,0.52-0.36,0.91-0.7
			c0.54-0.48,0.81-0.85,0.81-1.11c0-0.13-0.05-0.3-0.16-0.51c-0.12-0.24-0.52-0.95-0.69-1.11l0.27-1.31
			c0.22,0.23,0.39,0.48,0.51,0.78c0.12,0.3,0.44,1.15,0.44,1.52v0.65h0.36c0.34,0,0.63-0.1,0.85-0.29c0.29-0.25,0.44-0.63,0.44-1.14
			l0.32,0.05c-0.01,0.11-0.01,0.22-0.02,0.36c-0.01,0.13-0.01,0.28-0.01,0.44c0,0.17,0.05,0.3,0.17,0.41
			c0.11,0.11,0.24,0.17,0.39,0.17h0.6c0.1,0,0.18,0,0.26-0.01c0.26-0.02,0.45-0.07,0.58-0.15c0.04-0.02,0.08-0.06,0.11-0.1
			c0.13-0.14,0.2-0.36,0.2-0.65c0-0.08,0.02-0.14,0.07-0.21c0.03-0.04,0.09-0.09,0.19-0.16l0.18-0.14c0.01,0.06,0.01,0.14,0.02,0.25
			c0.01,0.11,0.01,0.17,0.01,0.21c0,0.18-0.03,0.41-0.08,0.71c0.12,0.06,0.25,0.11,0.4,0.15c0.15,0.04,0.31,0.07,0.47,0.1
			c0-0.11-0.04-0.25-0.12-0.42c-0.08-0.18-0.12-0.3-0.12-0.36c0-0.08,0.01-0.15,0.03-0.2c0.01-0.01,0.05-0.07,0.11-0.15l0.42-0.56
			C160.69,10.01,160.75,10.19,160.79,10.36z"/>
		<g>
			<path class="st1" d="M158.59,6.74L159.1,7l0.38,0.21l-0.38,0.71l-0.06,0.12l-0.89-0.48L158.59,6.74L158.59,6.74L158.59,6.74z
				 M159.6,6.86L159.6,6.86l0.18-0.35l0.26-0.48l-0.26-0.13l-0.63-0.34l-0.06,0.11l-0.38,0.71l0.38,0.21L159.6,6.86L159.6,6.86z
				 M159.98,6.8l0.89,0.48l-0.44,0.82l-0.64-0.33l-0.25-0.14l0.25-0.48L159.98,6.8z"/>
			<path class="st1" d="M146.54,8.19l0.25,0.13l0.64,0.34l-0.44,0.83l-0.2-0.1l-0.69-0.38L146.54,8.19L146.54,8.19L146.54,8.19z
				 M148.15,8.36l0.67,0.36l-0.44,0.83l-0.23-0.12l-0.66-0.36l0.44-0.83L148.15,8.36z"/>
			<path class="st1" d="M152.58,6.64c0.13-0.05,0.4-0.16,0.81-0.32v1.16c-0.01,0-0.15,0.04-0.4,0.12c-0.32,0.1-0.57,0.2-0.76,0.28
				c-0.05,0.02-0.15,0.05-0.27,0.09c-0.51,0.17-1.46,0.47-1.46,0.52c0,0.03,0.48,0.67,0.71,0.89c0.29,0.29,0.54,0.55,0.75,0.78
				c0.01,0.02,0.03,0.04,0.05,0.06c0.35,0.42,0.64,0.83,0.86,1.25v1.36h-7.45l-1.09-0.93l1.51-0.15l1.36-0.02l1.63-0.03
				c-0.09-0.25-0.16-0.61-0.22-0.72c-0.07-0.12-0.18-0.28-0.33-0.47l0.44-1.13c0.24,0.35,0.4,0.67,0.48,0.96
				c0.07,0.25,0.13,0.78,0.13,1.27v0.05h2.81c-0.05-0.06-0.11-0.14-0.16-0.23c-0.08-0.13-0.17-0.26-0.24-0.32
				c-0.1-0.09-0.23-0.2-0.39-0.33c-0.19-0.14-0.37-0.29-0.55-0.43l-0.16,0.17c-0.29-0.29-0.46-0.46-0.52-0.52
				c-0.16-0.18-0.61-0.91-0.61-1.15c0-0.33,0.02-0.55,0.07-0.69c0.07-0.18,0.2-0.35,0.41-0.5c0.19-0.12,1.71-0.61,1.92-0.72
				c0.02-0.01,0.04-0.02,0.06-0.02C152.13,6.83,152.33,6.74,152.58,6.64z"/>
		</g>
	</g>
	<g>
		<polygon class="st1" points="163.78,13.14 162.89,12.66 163.33,11.83 164.22,12.31 		"/>
		<path class="st1" d="M173.35,17.33l0.06-0.09c-0.05-0.25-0.14-0.5-0.26-0.74c-0.1-0.2-0.23-0.41-0.4-0.63
			c-0.04,0.01-0.07,0.02-0.1,0.03c-0.16,0.06-0.3,0.14-0.42,0.26c-0.1,0.1-0.21,0.25-0.34,0.47c0.16,0.17,0.38,0.32,0.66,0.46
			c0.04,0.02,0.07,0.03,0.1,0.05C172.9,17.24,173.13,17.3,173.35,17.33L173.35,17.33L173.35,17.33z M168.43,17.64v-0.23
			c-0.05-0.14-0.15-0.33-0.34-0.57c-0.1-0.13-0.21-0.27-0.35-0.42c-0.06-0.07-0.12-0.14-0.19-0.21c0,0.21-0.05,0.4-0.13,0.58
			c-0.09,0.19-0.21,0.32-0.36,0.42c0.23,0.12,0.45,0.24,0.69,0.35l0.08,0.04c0.21,0.09,0.36,0.14,0.45,0.14
			c0.05,0,0.1-0.02,0.13-0.06C168.41,17.66,168.42,17.65,168.43,17.64L168.43,17.64L168.43,17.64z M166.76,16.46
			c0.11-0.13,0.16-0.26,0.16-0.38c0-0.18-0.04-0.33-0.11-0.44c-0.09-0.13-0.23-0.19-0.43-0.19c-0.04,0-0.09,0-0.13,0.01
			c-0.14,0.02-0.28,0.08-0.42,0.18c-0.17,0.13-0.25,0.29-0.25,0.47c0,0.16,0.22,0.37,0.67,0.63c0.04,0.02,0.07,0.04,0.11,0.06
			C166.53,16.68,166.67,16.57,166.76,16.46L166.76,16.46L166.76,16.46z M165.18,17.3c0.08-0.02,0.15-0.04,0.24-0.06
			c-0.08-0.06-0.16-0.12-0.24-0.19c-0.03-0.02-0.06-0.04-0.09-0.07c-0.08-0.07-0.13-0.15-0.16-0.22v0.59
			C165.01,17.34,165.09,17.32,165.18,17.3L165.18,17.3L165.18,17.3z M173.8,16.19c0.24,0.5,0.36,0.9,0.36,1.21v1.14h-0.68
			c-0.25,0-0.53-0.05-0.83-0.15c-0.05-0.01-0.1-0.03-0.15-0.05c-0.42-0.15-0.8-0.36-1.12-0.63c-0.25,0.31-0.51,0.52-0.77,0.64
			c-0.26,0.12-0.64,0.18-1.15,0.18h-0.67c-0.11,0.15-0.23,0.23-0.35,0.23c-0.14,0-0.36-0.07-0.69-0.2
			c-0.09-0.04-0.18-0.08-0.28-0.13c-0.44-0.21-0.81-0.4-1.11-0.6c-0.04,0.02-0.07,0.04-0.11,0.06c-0.43,0.25-0.76,0.41-0.97,0.48
			c-0.03,0.01-0.06,0.02-0.09,0.03c-0.08,0.02-0.16,0.05-0.25,0.07l-0.57,0.06h-4.69c-0.12,0-0.23-0.02-0.33-0.05
			c-0.12-0.04-0.23-0.09-0.33-0.17c-0.2-0.14-0.3-0.31-0.3-0.51c0-0.17,0.01-0.32,0.03-0.45c0.02-0.13,0.05-0.29,0.1-0.45h0.15
			c0.05,0.18,0.13,0.31,0.26,0.39c0.03,0.02,0.06,0.04,0.1,0.05c0.09,0.04,0.2,0.05,0.33,0.05h2.53c0-0.78-0.11-1.41-0.33-1.88
			c-0.27-0.6-0.72-0.99-1.35-1.19l0.1-1.27c0.76,0.38,1.29,0.97,1.6,1.78c0.25,0.65,0.38,1.51,0.38,2.56h1.86
			c0-0.52-0.06-0.91-0.18-1.18c-0.08-0.18-0.29-0.46-0.61-0.81l0.51-1.06c0.32,0.39,0.51,0.7,0.59,0.92
			c0.1,0.27,0.15,0.69,0.17,1.25c0.01-0.04,0.04-0.1,0.09-0.19l0.17-0.29l0.46-0.81c0.09-0.15,0.17-0.25,0.23-0.3
			c0.07-0.06,0.17-0.11,0.29-0.14c-0.29-0.2-0.44-0.35-0.44-0.43c0-0.08,0.09-0.3,0.27-0.66c0.06-0.1,0.14-0.25,0.24-0.43l0.05-0.1
			c0.27,0.26,0.61,0.64,1.03,1.13c0.15,0.18,0.29,0.35,0.42,0.51c0.33,0.42,0.6,0.8,0.82,1.15c0.38,0.61,0.58,1.09,0.6,1.44h0.27
			c0.4,0,0.75-0.1,1.06-0.3c0.24-0.16,0.46-0.38,0.66-0.66c0.26-0.38,0.59-0.72,0.98-1c0.19-0.13,0.36-0.24,0.53-0.32
			c0.15-0.08,0.3-0.13,0.44-0.17C173.39,15.41,173.62,15.82,173.8,16.19z"/>
		<path class="st1" d="M158.32,15.78c0.1,0.29,0.15,0.69,0.15,1.18v1.57h-0.51c-0.28,0-0.52-0.04-0.72-0.12
			c-0.2-0.08-0.38-0.19-0.55-0.32c-0.2,0.16-0.38,0.27-0.54,0.32c-0.22,0.08-0.53,0.12-0.91,0.12h-0.43c-0.23,0-0.45-0.05-0.67-0.13
			c-0.14-0.06-0.33-0.15-0.55-0.29c-0.15,0.12-0.3,0.21-0.44,0.27c-0.05,0.02-0.09,0.04-0.13,0.05c-0.15,0.05-0.4,0.08-0.73,0.08
			v0.01h-1.17c-0.66,0-1.15,0.01-1.48,0.05c-0.33,0.04-0.51,0.11-0.51,0.21c0,0.14,0.2,0.21,0.61,0.21c0.18,0,0.32,0.01,0.42,0.02
			c0.1,0.01,0.33,0.03,0.69,0.07c0.21,0.02,0.35,0.06,0.43,0.1c0.13,0.07,0.19,0.18,0.19,0.34c0,0.82-0.27,1.41-0.8,1.78
			c-0.49,0.34-1.25,0.54-2.28,0.59c-0.19,0.01-0.4,0.01-0.61,0.01c-0.26,0-0.51-0.01-0.75-0.04c-0.6-0.07-1.09-0.21-1.49-0.44
			c-0.58-0.34-0.88-0.82-0.88-1.44c0-0.51,0.14-1.04,0.42-1.61c0.1-0.2,0.36-0.64,0.79-1.31l0.26,0.13
			c-0.17,0.28-0.33,0.56-0.49,0.84c-0.25,0.48-0.38,0.87-0.38,1.18c0,0.53,0.28,0.94,0.84,1.22c0.26,0.13,0.57,0.23,0.92,0.29
			c0.37,0.07,0.79,0.1,1.26,0.1h0.09c0.59-0.01,1.1-0.05,1.56-0.14c0.58-0.11,0.87-0.27,0.87-0.48c0-0.07-0.03-0.13-0.1-0.17
			c-0.07-0.04-0.17-0.05-0.33-0.05c-0.12-0.01-0.3-0.02-0.55-0.04c-0.25-0.02-0.41-0.02-0.49-0.02c-0.27,0-0.47-0.04-0.59-0.11
			c-0.12-0.07-0.18-0.18-0.18-0.32c0-0.54,0.16-0.98,0.48-1.33c0.26-0.28,0.61-0.48,1.06-0.62c0.26-0.08,0.52-0.13,0.8-0.14V17.4
			h1.28c0.35,0,0.59-0.04,0.74-0.1c0.09-0.04,0.17-0.08,0.23-0.14c0.1-0.11,0.15-0.26,0.15-0.46c0-0.12-0.01-0.25-0.02-0.38
			c-0.02-0.13-0.04-0.27-0.07-0.42l0.27-0.39c0.12,0.4,0.22,0.69,0.3,0.88c0.14,0.32,0.29,0.55,0.46,0.72
			c0.19,0.2,0.44,0.3,0.71,0.3h0.44c0.33,0,0.57-0.05,0.73-0.16c0.17-0.11,0.26-0.29,0.26-0.54c0-0.13-0.01-0.26-0.03-0.39
			c-0.02-0.13-0.04-0.27-0.07-0.41l0.27-0.39l0.14,0.61c0.12,0.48,0.26,0.82,0.44,1.01c0.14,0.16,0.35,0.25,0.6,0.25
			c0.11,0,0.21-0.04,0.28-0.11c0.07-0.07,0.11-0.16,0.11-0.27c0-0.24-0.09-0.5-0.27-0.78c-0.03-0.04-0.14-0.18-0.32-0.42l0.42-0.71
			C158.14,15.35,158.26,15.58,158.32,15.78z"/>
	</g>
</g>
</svg>
